<svg xmlns="http://www.w3.org/2000/svg" xmlns:xlink="http://www.w3.org/1999/xlink" version="1.1" x="0px" y="0px" viewBox="0 0 100 125" fill = "rgba(20, 137, 73, .88)" enable-background="new 0 0 100 100" xml:space="preserve">
    <g>
        <g><circle cx="49.995" cy="85.945" r="4.674"/><circle cx="49.995" cy="74.15" r="4.674"/><circle cx="49.995" cy="62.357" r="4.674"/><circle cx="49.995" cy="50.562" r="4.674"/><circle cx="49.995" cy="38.769" r="4.674"/><circle cx="49.995" cy="26.973" r="4.674"/><circle cx="40.038" cy="80.962" r="3.941"/><circle cx="40.038" cy="71.016" r="3.941"/><circle cx="40.038" cy="61.07" r="3.941"/><circle cx="40.038" cy="51.122" r="3.941"/><circle cx="40.038" cy="41.176" r="3.941"/><circle cx="49.854" cy="4.476" r="3.941"/><circle cx="59.756" cy="80.962" r="3.941"/><circle cx="59.756" cy="71.016" r="3.941"/><circle cx="59.756" cy="61.07" r="3.941"/><circle cx="59.756" cy="51.122" r="3.941"/><circle cx="59.756" cy="41.176" r="3.941"/><circle cx="40.039" cy="31.231" r="3.94"/><circle cx="40.039" cy="21.283" r="3.941"/><circle cx="59.756" cy="31.231" r="3.94"/><circle cx="59.756" cy="21.283" r="3.941"/><circle cx="49.995" cy="15.034" r="4.674"/><circle cx="40.039" cy="11.371" r="3.942"/><circle cx="59.756" cy="11.371" r="3.942"/><path stroke="#000000" stroke-width="4.0551" stroke-linecap="round" stroke-linejoin="round" d="M49.982,96.24"/><path stroke="#000000" stroke-width="4.0551" stroke-linecap="round" stroke-linejoin="round" d="M49.982,96.24"/><path
            d="M79.906,51.866c-0.278,0.097-4.748,1.714-8.263,5.892c0.034-0.381,0.073-0.75,0.124-1.092    c1.609-11.046,9.327-14.855,9.669-15.02c1.011-0.476,1.447-1.677,0.977-2.689c-0.474-1.016-1.678-1.458-2.695-0.985    c-0.407,0.191-10.024,4.806-11.963,18.108c-0.335,2.298-0.338,5.108-0.34,8.364C67.4,76.831,67.782,94.331,49.684,94.309    c-17.497-0.021-17.437-17.478-17.451-29.863c-0.002-3.256-0.006-6.066-0.342-8.364c-1.937-13.302-11.556-17.917-11.965-18.108    c-1.01-0.471-2.208-0.033-2.683,0.978c-0.476,1.009-0.042,2.216,0.964,2.696c0.331,0.155,8.061,3.963,9.673,15.02    c0.048,0.342,0.087,0.711,0.122,1.092c-3.515-4.178-7.983-5.795-8.26-5.892c-1.057-0.372-2.214,0.187-2.585,1.242    c-0.369,1.058,0.187,2.216,1.243,2.585c0.081,0.027,7.932,2.862,9.495,10.937c0.275,1.427,0.288,3.479,0.302,5.855    c0.056,9.635,2.075,26.913,21.247,26.913c0.002,0,0.836-0.015,0.838-0.015c18.85-0.097,21.109-17.264,21.167-26.898    c0.013-2.376,0.026-4.429,0.302-5.855c1.549-8,9.158-10.815,9.499-10.938c1.053-0.374,1.608-1.528,1.237-2.584    C82.118,52.053,80.962,51.494,79.906,51.866z"/></g>
    </g>
    <text x="0" y="115" fill="#000000" font-size="5px" font-weight="bold" font-family="'Helvetica Neue', Helvetica, Arial-Unicode, Arial, Sans-serif">Created by Luis Prado</text>
    <text x="0" y="120" fill="#000000" font-size="5px" font-weight="bold" font-family="'Helvetica Neue', Helvetica, Arial-Unicode, Arial, Sans-serif">from the Noun Project</text>
</svg>
