<svg
    xmlns:dc="http://purl.org/dc/elements/1.1/"
    xmlns:cc="http://creativecommons.org/ns#"
    xmlns:rdf="http://www.w3.org/1999/02/22-rdf-syntax-ns#"
    xmlns:svg="http://www.w3.org/2000/svg"
    xmlns="http://www.w3.org/2000/svg"
    version="1.1"
    x="0px"
    y="0px"
    viewBox="0 0 100 125"><path
    d="m 62.75,5.09375 c -7.866024,4.1983562 0.211903,10.155085 -1.09375,14.96875 -0.81763,2.452694 -1.524029,3 -3.25,3 -1.725941,0 -3.022503,-1.18028 -2.75,-2.90625 0.272502,-1.725971 -0.425074,-2.262392 0.9375,-3.625 -4.632451,0.759413 -4.396066,4.438358 -4.1875,5.625 -0.226335,0.0094 -0.449828,0.06093 -0.65625,0.125 l 0,-0.15625 c -5.64336,-5.781108 -9.38088,-1.48826 -8.8125,-8.84375 -3.009874,4.728491 1.693395,9.206874 5.0625,12.65625 -0.79496,-0.767114 -2.014216,-1.155378 -4.65625,-0.09375 2.101808,-0.644843 4.711809,2.185326 3.375,5.71875 -2.31598,-3.107188 -9.229223,-1.555494 -12.3125,0.5 -3.083215,2.055482 -2.291859,3.086743 -7.6875,1.03125 4.265928,7.820977 10.125374,-0.251244 14.96875,1.0625 2.452645,0.817564 3,1.555281 3,3.28125 0,1.725971 -1.180309,2.991271 -2.90625,2.71875 -1.726002,-0.272522 -2.293677,0.456357 -3.65625,-0.90625 0.81956,4.999522 5.057401,4.308557 5.875,4.125 0.0318,0.139877 0.03125,0.302927 0.03125,0.46875 0,0.137522 0.01488,0.269592 0,0.40625 l -0.21875,0.03125 c -4.210111,4.031494 -3.050941,7.212705 -5,8.375 l 3.40625,0 C 44.198813,51.423092 46.015596,49.571968 47.625,48 c -0.766653,0.794463 -1.152999,2.017583 -0.09375,4.65625 -0.638964,-2.100979 2.188074,-4.71074 5.71875,-3.375 -0.999237,0.744772 -1.51444,1.959975 -1.6875,3.375 l 5,0 c 0.610718,-1.054376 1.328901,-1.3125 2.5625,-1.3125 1.126987,0 2.063813,0.482523 2.5,1.3125 l 3.5625,0 C 65.17662,52.552285 65.13817,52.461508 65.125,52.375 c 0.01216,-0.0028 0.05001,0.0026 0.0625,0 0.247565,-0.0521 0.559487,-0.04867 0.90625,-0.03125 0.121867,0.117409 0.223873,0.203536 0.34375,0.3125 l 7.25,0 c -1.163351,-1.549264 -2.638585,-2.983334 -3.90625,-4.28125 0.794868,0.768578 2.042985,1.156397 4.6875,0.09375 -2.101777,0.644841 -4.711809,-2.185325 -3.375,-5.71875 2.31595,3.10719 9.197974,1.555494 12.28125,-0.5 3.083184,-2.055483 2.323108,-3.086744 7.71875,-1.03125 -4.246812,-7.818857 -10.144735,0.246001 -14.96875,-1.0625 -2.452645,-0.817564 -3,-1.55528 -3,-3.28125 0,-1.72597 1.180279,-2.991271 2.90625,-2.71875 1.726003,0.272522 2.262395,-0.456357 3.625,0.90625 -0.601283,-3.667894 -3.017922,-4.261359 -4.59375,-4.25 -0.347988,-0.220579 -0.7374,-0.468843 -1.125,-0.71875 5.305665,-5.804738 1.444964,-9.323896 8.625,-8.75 -4.729535,-3.010565 -9.206574,1.693217 -12.65625,5.0625 0.768582,-0.794876 1.156368,-2.042947 0.09375,-4.6875 0.644846,2.101815 -2.185347,4.743035 -5.71875,3.40625 3.107182,-2.315962 1.524236,-9.229271 -0.53125,-12.3125 -2.055518,-3.0832299 -3.055487,-2.323099 -1,-7.71875 z M 58.90625,26.125 c 6.120722,0 11.0625,4.97303 11.0625,11.09375 0,6.120719 -4.941778,11.0625 -11.0625,11.0625 -6.120722,0 -11.09375,-4.941781 -11.09375,-11.0625 0,-6.12072 4.973028,-11.09375 11.09375,-11.09375 z M 20.75,55.0625 5,95.09375 l 36.34375,0 15.78125,-40.03125 -36.375,0 z m 37.90625,0 -15.78125,40.03125 36.375,0 L 95,55.0625 l -36.34375,0 z m -36.75,1.0625 33.21875,0 L 40.1875,94.03125 7,94.03125 21.90625,56.125 z m 37.90625,0 33.1875,0 -14.90625,37.90625 -33.21875,0 L 59.8125,56.125 z m -36.1875,1.625 -3.40625,8.625 13.59375,0 3.40625,-8.625 -13.59375,0 z m 14.9375,0 -3.40625,8.625 13.59375,0 3.40625,-8.625 -13.59375,0 z m 22.96875,0 -3.40625,8.625 13.59375,0 3.40625,-8.625 -13.59375,0 z m 14.90625,0 -3.40625,8.625 13.59375,0 3.40625,-8.625 -13.59375,0 z m -56.5625,9.53125 -4.6875,11.875 13.59375,0 4.6875,-11.875 -13.59375,0 z m 14.90625,0 -4.65625,11.875 13.59375,0 4.65625,-11.875 -13.59375,0 z m 22.96875,0 -4.65625,11.875 13.59375,0 4.65625,-11.875 -13.59375,0 z m 14.9375,0 -4.6875,11.875 13.59375,0 4.6875,-11.875 -13.59375,0 z m -57.84375,12.78125 -4.875,12.34375 13.59375,0 4.875,-12.34375 -13.59375,0 z m 14.90625,0 -4.875,12.34375 13.59375,0 4.875,-12.34375 -13.59375,0 z m 22.96875,0 -4.875,12.34375 13.59375,0 4.875,-12.34375 -13.59375,0 z m 14.9375,0 -4.875,12.34375 13.59375,0 4.875,-12.34375 -13.59375,0 z"
    style=""
    fill="rgba(224, 214, 20, .88)"
        fill-opacity="1"
    stroke="#000000"
    stroke-width="0.37065092px"
    stroke-linecap="butt"
    stroke-linejoin="miter"
    stroke-opacity="1"/>
    <text x="0" y="115" fill="#000000" font-size="5px" font-weight="bold" font-family="'Helvetica Neue', Helvetica, Arial-Unicode, Arial, Sans-serif">Created by Bonegolem</text>
    <text x="0" y="120" fill="#000000" font-size="5px" font-weight="bold" font-family="'Helvetica Neue', Helvetica, Arial-Unicode, Arial, Sans-serif">from the Noun Project</text>
</svg>
